# xmcd CD database file
#
# Track frame offsets:
#	150
#	41205
#	95490
#	151613
#
# Disc length: 2950 seconds
#
# Revision: 0
# Processed by: cddbd v1.5.2PL0 Copyright (c) Steve Scherf et al.
# Submitted via: CDex 2.07
#
DISCID=260b8404
DTITLE=JD Walter - Live In Portugal [CD2)
DYEAR=2008
DGENRE=Jazz
TTITLE0=Keisa's Coy
TTITLE1=Inword 
TTITLE2=I Was Telling Her About You
TTITLE3=Just The Way You Look Tonight
EXTD=YEAR: 2008
EXTT0=
EXTT1=
EXTT2=
EXTT3=
PLAYORDER=
